<?xml version="1.0" encoding="utf-8"?>
<!-- Generator: Adobe Illustrator 17.1.0, SVG Export Plug-In . SVG Version: 6.00 Build 0)  -->
<!DOCTYPE svg PUBLIC "-//W3C//DTD SVG 1.1//EN" "http://www.w3.org/Graphics/SVG/1.1/DTD/svg11.dtd">
<svg version="1.1" id="Layer_1" xmlns="http://www.w3.org/2000/svg" xmlns:xlink="http://www.w3.org/1999/xlink" x="0px" y="0px"
	 viewBox="0 0 2000 348" enable-background="new 0 0 2000 348" xml:space="preserve">
<path fill="#F4F5F5" d="M1485.9,53.3h-79c0,77.5,0,161.5,0,239h79C1642.7,292.3,1642.7,53.3,1485.9,53.3z"/>
<path fill="#F4F5F5" d="M0-0.4v348.8h2000V-0.4H0z M115.9,297.7c-36.4,0-80.7-20.7-85-61.1l-0.4-2.5l5.7-0.7l0.4,2.5
	c3.9,37.5,45.7,56.5,79.7,56.5c43.6,0,90.8-28.2,80.4-77.9C180.5,140.1,39.4,208,33,114.7c-1.4-15,2.5-29.7,11.8-41.8
	c36.4-47.2,139.3-41.1,151.5,23.6l0.4,2.9l-5.4,1.1l-0.4-2.9c-2.1-10.4-6.4-19.3-13.6-27.2c-15.4-16.4-40-23.2-62.5-22.9
	c-23.6,0.4-50.4,8.9-65.4,28.6c-8.9,11.1-12.1,24.3-11.1,38.2c6.4,87.5,146.8,18.9,164,99C213.8,266.2,163.4,297.7,115.9,297.7z
	 M408.6,297.7l-36.4-89.3L311,51.5l-60.7,156.9l-36.4,89.3h-6.1L308.2,44h6.1l100.4,253.7H408.6z M753.6,297.7l-96.2-243l-60,170.1
	h-7.9l-60-170.1l-96.6,243h-5.7l99.5-252.2h5l61.8,174.7l61.5-174.7h5l99.5,252.2H753.6z M923.5,297.7L861.7,123l-61.5,174.7h-5
	L695.8,45.4h5.7l96.2,243l60-170.1h7.9l60,170.1l96.6-243h5.7l-99.5,252.2H923.5z M1168.2,297.7l-36.4-89.3l-61.1-156.9L1010,208.4
	l-36.4,89.3h-6.1L1067.8,44h6.1l100.4,253.7H1168.2z M1368.3,297.7h-5.7L1197.6,59v238.7h-5.7V47.2l5,0.4L1363,287.7V47.6h5.4V297.7
	z M1485.9,297.7h-84.3c0-83.2,0-166.5,0-249.7h84.3C1649.9,47.9,1649.9,297.7,1485.9,297.7z M1773.2,297.7h-137.9h-0.7V47.9h137.9
	v5.4h-132.2v116.5h129.3v5.7h-129.3v116.8h132.9V297.7z M1960.4,297.7h-8.2l-115-104v-5.4h48.6c92.9,0,92.9-135.1,0-135.1h-81.1
	v244.4h-5.4V50.4v-2.9h2.9h83.6c100,0,100,146.1,0,146.1h-40.4L1960.4,297.7z"/>
</svg>
